# xmcd
#
# Track frame offsets:
#	150
#	15610
#	39815
#	53302
#	76950
#	102952
#	119745
#	138555
#	156367
#	176095
#
# Disc length: 2592 seconds
#
# Revision: 1
# Processed by: cddbd v1.5.1PL0 Copyright (c) Steve Scherf et al.
# Submitted via: CDex 1.50Beta5
#
DISCID=790a1e0a
DTITLE=チューリップ - New Tune
DYEAR=1993
DGENRE=
TTITLE0=春がくるくる
TTITLE1=もっと幸せに素直になれたら
TTITLE2=黒い髪のリサ
TTITLE3=ふたつめのクリスマス
TTITLE4=ロベリア
TTITLE5=Route134
TTITLE6=光の花
TTITLE7=ロボットの心
TTITLE8=そんな男になれたら
TTITLE9=OUR SONG
EXTD=
EXTT0=
EXTT1=
EXTT2=
EXTT3=
EXTT4=
EXTT5=
EXTT6=
EXTT7=
EXTT8=
EXTT9=
PLAYORDER=
